<svg preserveAspectRatio="none" width="100%" height="100%" overflow="visible" style="display: block;" viewBox="0 0 88.2634 29.16" fill="none" xmlns="http://www.w3.org/2000/svg">
<g id="c &#208;&#187;&#209;&#142;&#208;&#177;&#208;&#190;&#208;&#178;&#209;&#140;&#209;&#142;,">
<path id="Vector" d="M73.8328 28.44C74.9528 28.44 76.2328 27.76 77.4328 26.52C77.3128 26.28 77.2728 26.08 77.2728 25.88C77.2728 25.44 77.5928 25.16 77.9528 25.16C78.1928 25.16 78.2728 25.4 78.2728 25.68C78.2728 26 78.1528 26.24 77.9528 26.56C78.1528 26.88 78.4328 26.96 78.7528 26.96C79.4728 26.96 80.3928 26.36 81.5928 25.8C81.7128 25.8 81.7928 25.84 81.7928 25.96C81.7928 26.04 81.7528 26.12 81.5928 26.2C80.5128 26.68 79.5928 27.32 78.7528 27.32C78.3528 27.32 78.0328 27.28 77.6328 26.84C76.4328 28.08 74.9928 28.76 73.7128 28.76C73.1928 28.76 72.8328 28.4 72.8328 27.96C72.8328 26.96 73.9128 25.76 76.5528 23.76L76.5128 23.68C74.7528 24.36 73.3928 24.96 70.5928 26.2C70.4728 26.2 70.3928 26.16 70.3928 26.04C70.3928 25.96 70.4328 25.88 70.5928 25.8C73.3528 24.6 74.6328 24.04 78.7128 22.52L78.8728 22.72C74.4728 26 73.2328 27.36 73.2328 27.92C73.2328 28.24 73.5128 28.44 73.8328 28.44Z" fill="var(--fill-0, white)"/>
<path id="Vector_2" d="M77.0634 9.16C72.9834 13.28 69.2634 16.88 66.2634 19.84C75.9834 13.6 87.8234 4.72 87.8234 0.96C87.8234 0.599999 87.6234 0.4 87.4234 0.4C85.8634 0.4 81.9034 4.32 77.0634 9.16ZM70.5834 25.8C70.7034 25.8 70.7834 25.84 70.7834 25.96C70.7834 26.04 70.7434 26.12 70.5834 26.2C69.3034 26.76 68.3034 27.08 66.9034 27.08C66.2234 27.08 65.6634 26.84 65.3834 26.44C63.3834 27.68 60.6234 28.68 59.3434 28.68C58.6234 28.68 58.3834 28.48 58.3834 28C58.3834 27.24 59.9834 25.32 62.9034 22.36C60.1034 24.08 57.6234 25.44 55.9834 26.2C55.8634 26.2 55.7834 26.16 55.7834 26.04C55.7834 25.96 55.8234 25.88 55.9834 25.8C57.7834 24.96 60.6634 23.32 63.9434 21.28C67.0634 18.16 71.3834 14 76.6234 8.84C81.5834 3.92 85.8234 0 87.5034 0C88.0634 0 88.2634 0.36 88.2634 0.92C88.2634 5.04 75.1434 14.72 65.0634 21.04C61.2634 24.8 58.9034 27.28 58.9034 27.88C58.9034 28.12 58.9834 28.28 59.5434 28.28C60.4634 28.28 63.3434 27.32 65.3434 26.08C66.8234 24.08 68.3434 22.52 69.0634 22.52C69.2634 22.52 69.3034 22.68 69.3034 22.84C69.3034 23.48 67.6234 24.72 65.8634 26.12C65.8634 26.44 66.3034 26.68 66.9834 26.68C68.3434 26.68 69.1834 26.4 70.5834 25.8Z" fill="var(--fill-0, white)"/>
<path id="Vector_3" d="M47.3278 27.92C47.3278 28.2 47.5278 28.44 48.2078 28.44C50.4878 28.44 54.1278 25.64 54.1278 23.56C54.1278 23.04 53.8878 22.8 53.4078 22.8C51.7678 22.8 47.3278 26.44 47.3278 27.92ZM44.9678 25.8C47.0478 24.8 48.2878 24.28 50.6878 23.36C51.6878 22.76 52.6878 22.4 53.3678 22.4C54.1678 22.4 54.4878 22.84 54.4878 23.6C54.4878 24.4 53.9678 25.32 53.1678 26.16C53.3678 26.4 53.5678 26.44 53.8478 26.44C54.3278 26.44 55.0078 26.24 55.9678 25.8C56.0878 25.8 56.1678 25.84 56.1678 25.96C56.1678 26.04 56.1278 26.12 55.9678 26.2C55.0478 26.64 54.3678 26.8 53.7678 26.8C53.4078 26.8 53.0878 26.72 52.8878 26.48C51.5678 27.8 49.6478 28.84 48.2478 28.84C47.3678 28.84 46.9278 28.48 46.9278 27.84C46.9278 26.72 47.9678 25.36 49.2078 24.36L49.1678 24.28C48.0078 24.76 47.0878 25.2 44.9678 26.2C44.8478 26.2 44.7678 26.16 44.7678 26.04C44.7678 25.96 44.8078 25.88 44.9678 25.8Z" fill="var(--fill-0, white)"/>
<path id="Vector_4" d="M47.8322 9.72C48.5522 9.2 49.1522 9.04 49.7522 9.04C51.0722 9.04 52.2722 9.92 53.6322 9.92C54.0722 9.92 54.5122 9.84 54.9922 9.6L55.0722 9.76C54.3122 10.24 53.6322 10.4 53.0322 10.4C51.6322 10.4 50.5522 9.48 49.3922 9.48C48.9522 9.48 48.5522 9.6 48.0322 9.96C46.6322 10.96 46.5122 13.44 46.1122 16.48C45.5922 20.32 44.5922 23.32 42.1522 26.16C42.3522 26.4 42.5522 26.44 42.8322 26.44C43.3122 26.44 43.9922 26.24 44.9522 25.8C45.0722 25.8 45.1522 25.84 45.1522 25.96C45.1522 26.04 45.1122 26.12 44.9522 26.2C44.0322 26.64 43.3522 26.8 42.7522 26.8C42.3922 26.8 42.0722 26.72 41.8722 26.48C40.5522 27.8 38.6322 28.84 37.2322 28.84C36.3522 28.84 35.9122 28.48 35.9122 27.84C35.9122 26.72 36.9522 25.36 38.1922 24.36L38.1522 24.28C36.9922 24.76 36.0722 25.2 33.9522 26.2C33.8322 26.2 33.7522 26.16 33.7522 26.04C33.7522 25.96 33.7922 25.88 33.9522 25.8C36.0322 24.8 37.2722 24.28 39.6722 23.36C40.6722 22.76 41.6722 22.4 42.3522 22.4C43.1522 22.4 43.4722 22.84 43.4722 23.6V23.8C44.9522 21.36 45.4722 18.8 45.7922 16.52C46.2322 13.4 46.2722 10.84 47.8322 9.72ZM36.3122 27.92C36.3122 28.2 36.5122 28.44 37.1922 28.44C39.4722 28.44 43.1122 25.64 43.1122 23.56C43.1122 23.04 42.8722 22.8 42.3922 22.8C40.7522 22.8 36.3122 26.44 36.3122 27.92Z" fill="var(--fill-0, white)"/>
<path id="Vector_5" d="M17.7444 29.16L17.5444 28.84C21.3844 26.44 23.7444 24.04 23.7444 23.44C23.7444 23.28 23.6644 23.24 23.4244 23.24C22.4244 23.24 17.9444 25.24 15.9444 26.2C15.8244 26.2 15.7444 26.16 15.7444 26.04C15.7444 25.96 15.7844 25.88 15.9444 25.8C17.9844 24.88 22.2644 22.84 23.6244 22.84C24.0244 22.84 24.2644 22.96 24.2644 23.32C24.2644 23.88 23.6244 24.84 22.0244 26.2C23.5044 26.04 25.1844 25.4 28.6644 23.36C29.6644 22.76 30.6644 22.4 31.3444 22.4C32.1444 22.4 32.4644 22.84 32.4644 23.6C32.4644 24.4 31.9444 25.32 31.1444 26.16C31.3444 26.4 31.5444 26.44 31.8244 26.44C32.3044 26.44 32.9844 26.24 33.9444 25.8C34.0644 25.8 34.1444 25.84 34.1444 25.96C34.1444 26.04 34.1044 26.12 33.9444 26.2C33.0244 26.64 32.3444 26.8 31.7444 26.8C31.3844 26.8 31.0644 26.72 30.8644 26.48C29.5444 27.8 27.6244 28.84 26.2244 28.84C25.3444 28.84 24.9044 28.48 24.9044 27.84C24.9044 27 25.5044 26 26.3444 25.12C24.4244 26.12 23.0644 26.6 21.5044 26.6C20.5444 27.36 19.3044 28.2 17.7444 29.16ZM25.3044 27.92C25.3044 28.2 25.5044 28.44 26.1844 28.44C28.4644 28.44 32.1044 25.64 32.1044 23.56C32.1044 23.04 31.8644 22.8 31.3844 22.8C29.7444 22.8 25.3044 26.44 25.3044 27.92Z" fill="var(--fill-0, white)"/>
<path id="Vector_6" d="M0.960001 28.32C1.96 28.32 4.76 27 6.76 25.92C8.12 25.2 9.92 24.28 14.16 22.52L14.32 22.72C9.92 26 8.48 27.56 8.48 28.16C8.48 28.32 8.56 28.36 8.88 28.36C9.88 28.36 13.96 26.76 15.96 25.8C16.08 25.8 16.16 25.84 16.16 25.96C16.16 26.04 16.12 26.12 15.96 26.2C13.92 27.12 10.04 28.76 8.68 28.76C8.28 28.76 7.96 28.64 7.96 28.28C7.96 27.24 9.28 25.96 11.92 23.96L11.88 23.88C10.04 24.68 8.32 25.52 6.76 26.36C4.76 27.44 2.16 28.72 0.880001 28.72C0.320001 28.72 0 28.36 0 27.88C0 26.56 1.32 25.48 1.96 25.48C2.2 25.48 2.36 25.56 2.36 25.76C2.36 26 2.12 26.12 1.96 26.2C0.680001 26.76 0.440001 27.4 0.440001 27.8C0.440001 28.2 0.640001 28.32 0.960001 28.32Z" fill="var(--fill-0, white)"/>
</g>
</svg>
