<svg preserveAspectRatio="none" width="100%" height="100%" overflow="visible" style="display: block;" viewBox="0 0 82 53" fill="none" xmlns="http://www.w3.org/2000/svg">
<g id="Frame 72">
<path id="Vector" d="M38.52 44.82C38.56 44.34 38.62 43.88 38.7 43.44C36.14 43.24 33.79 42.66 31.65 41.7C29.51 40.74 27.6 39.48 25.92 37.92C24.44 38.44 23.14 38.7 22.02 38.7C20.42 38.7 18.77 38.41 17.07 37.83C15.37 37.25 13.82 36.32 12.42 35.04H11.28C9.68 35.04 8.19 34.79 6.81 34.29C5.43 33.79 4.24 33.13 3.24 32.31C2.24 31.49 1.45 30.56 0.87 29.52C0.29 28.48 0 27.42 0 26.34C0 25.14 0.29 24.04 0.87 23.04C1.45 22.04 2.22 21.15 3.18 20.37C4.14 19.59 5.27 18.93 6.57 18.39C7.87 17.85 9.24 17.46 10.68 17.22C11.84 15.62 13.31 14.3 15.09 13.26C16.87 12.22 18.9 11.66 21.18 11.58C22.02 9.86 23.09 8.29 24.39 6.87C25.69 5.45 27.17 4.23 28.83 3.21C30.49 2.19 32.32 1.4 34.32 0.84C36.32 0.28 38.44 0 40.68 0C42.32 0 44.05 0.23 45.87 0.69C47.69 1.15 49.46 1.82 51.18 2.7C52.9 3.58 54.47 4.66 55.89 5.94C57.31 7.22 58.46 8.7 59.34 10.38C59.9 10.34 60.47 10.31 61.05 10.29C61.63 10.27 62.26 10.26 62.94 10.26C66.14 10.26 68.92 10.72 71.28 11.64C73.64 12.56 75.59 13.77 77.13 15.27C78.67 16.77 79.81 18.48 80.55 20.4C81.29 22.32 81.66 24.3 81.66 26.34C81.62 27.74 81.29 29.11 80.67 30.45C80.05 31.79 79.22 33 78.18 34.08C77.14 35.16 75.9 36.06 74.46 36.78C73.02 37.5 71.44 37.92 69.72 38.04C68.76 39.24 67.53 40.23 66.03 41.01C64.53 41.79 62.76 42.18 60.72 42.18C59.2 42.18 57.78 41.88 56.46 41.28C55.14 40.68 54.04 39.9 53.16 38.94C52.52 39.54 51.83 40.07 51.09 40.53C50.35 40.99 49.58 41.4 48.78 41.76C48.82 42.04 48.85 42.32 48.87 42.6C48.89 42.88 48.9 43.16 48.9 43.44C48.9 44.28 48.78 45.2 48.54 46.2C48.3 47.2 47.94 48.13 47.46 48.99C46.98 49.85 46.38 50.57 45.66 51.15C44.94 51.73 44.1 52.02 43.14 52.02C42.5 52.02 41.89 51.87 41.31 51.57C40.73 51.27 40.23 50.86 39.81 50.34C39.39 49.82 39.06 49.21 38.82 48.51C38.58 47.81 38.46 47.06 38.46 46.26C38.46 45.78 38.48 45.3 38.52 44.82ZM8.7 21.27C9.06 20.05 9.58 18.92 10.26 17.88C9.1 18.12 8 18.5 6.96 19.02C5.92 19.54 5.01 20.16 4.23 20.88C3.45 21.6 2.83 22.42 2.37 23.34C1.91 24.26 1.68 25.26 1.68 26.34C1.68 27.42 1.92 28.39 2.4 29.37C2.88 30.35 3.55 31.22 4.41 31.98C5.27 32.74 6.29 33.36 7.47 33.84C8.65 34.32 9.92 34.56 11.28 34.56H11.94C10.82 33.44 9.91 32.1 9.21 30.54C8.51 28.98 8.16 27.14 8.16 25.02C8.16 23.74 8.34 22.49 8.7 21.27ZM10.56 30.54C11.24 32.1 12.12 33.42 13.2 34.5C14.6 34.42 16.02 34.24 17.46 33.96C18.9 33.68 20.36 33.26 21.84 32.7C19.88 29.14 18.9 25.22 18.9 20.94C18.9 20.42 18.92 19.92 18.96 19.44C19 18.96 19.06 18.46 19.14 17.94C18.14 17.78 17.2 17.66 16.32 17.58C15.44 17.5 14.62 17.46 13.86 17.46C13.5 17.46 13.15 17.46 12.81 17.49C12.47 17.51 12.12 17.54 11.76 17.58C11.08 18.7 10.54 19.89 10.14 21.15C9.74 22.41 9.54 23.7 9.54 25.02C9.54 27.14 9.88 28.98 10.56 30.54ZM16.38 17.07C17.26 17.13 18.22 17.24 19.26 17.4C19.42 16.48 19.64 15.57 19.92 14.67C20.2 13.77 20.54 12.9 20.94 12.06C19.06 12.18 17.38 12.7 15.9 13.62C14.42 14.54 13.16 15.7 12.12 17.1C12.4 17.06 12.68 17.03 12.96 17.01C13.24 16.99 13.54 16.98 13.86 16.98C14.66 16.98 15.5 17.01 16.38 17.07ZM17.91 34.47C16.53 34.73 15.14 34.9 13.74 34.98C14.98 36.1 16.33 36.92 17.79 37.44C19.25 37.96 20.66 38.22 22.02 38.22C23.02 38.22 24.18 38 25.5 37.56C24.86 36.92 24.26 36.24 23.7 35.52C23.14 34.8 22.64 34.04 22.2 33.24C20.72 33.8 19.29 34.21 17.91 34.47ZM23.1 32.22C23.9 31.86 24.71 31.45 25.53 30.99C26.35 30.53 27.18 30 28.02 29.4C27.5 28.4 27.12 27.36 26.88 26.28C26.64 25.2 26.52 24.16 26.52 23.16C26.52 22.6 26.56 22.06 26.64 21.54L26.88 19.98C24.68 19.22 22.54 18.62 20.46 18.18C20.34 19.1 20.28 20.02 20.28 20.94C20.36 25.06 21.3 28.82 23.1 32.22ZM21.21 14.82C20.95 15.74 20.72 16.68 20.52 17.64C21.56 17.84 22.62 18.07 23.7 18.33C24.78 18.59 25.9 18.92 27.06 19.32C27.58 17.4 28.46 15.74 29.7 14.34C28.42 13.7 27.16 13.19 25.92 12.81C24.68 12.43 23.46 12.2 22.26 12.12C21.82 13 21.47 13.9 21.21 14.82ZM34.65 1.35C32.79 1.93 31.09 2.72 29.55 3.72C28.01 4.72 26.65 5.9 25.47 7.26C24.29 8.62 23.3 10.08 22.5 11.64C23.82 11.72 25.13 11.93 26.43 12.27C27.73 12.61 29.02 13.08 30.3 13.68C31.58 12.44 33.07 11.51 34.77 10.89C36.47 10.27 38.34 9.96 40.38 9.96C41.98 9.96 43.54 10.24 45.06 10.8C46.58 11.36 48.02 12.1 49.38 13.02C50.62 12.38 51.94 11.86 53.34 11.46C54.74 11.06 56.32 10.76 58.08 10.56C57.24 8.96 56.15 7.53 54.81 6.27C53.47 5.01 52.01 3.95 50.43 3.09C48.85 2.23 47.21 1.58 45.51 1.14C43.81 0.7 42.2 0.48 40.68 0.48C38.52 0.48 36.51 0.77 34.65 1.35ZM26.58 37.14C27.46 36.78 28.37 36.34 29.31 35.82C30.25 35.3 31.2 34.74 32.16 34.14C30.56 33.14 29.26 31.72 28.26 29.88C27.42 30.52 26.6 31.07 25.8 31.53C25 31.99 24.2 32.4 23.4 32.76C24.32 34.44 25.38 35.9 26.58 37.14ZM32.7 34.38C31.7 35.02 30.72 35.61 29.76 36.15C28.8 36.69 27.86 37.16 26.94 37.56C28.5 39.08 30.27 40.31 32.25 41.25C34.23 42.19 36.42 42.76 38.82 42.96C39.22 41.44 39.9 39.98 40.86 38.58C41.82 37.18 43.14 35.84 44.82 34.56C44.26 33.52 43.63 32.5 42.93 31.5C42.23 30.5 41.46 29.5 40.62 28.5C39.46 29.46 38.26 30.41 37.02 31.35C35.78 32.29 34.54 33.18 33.3 34.02C33.98 34.38 34.72 34.62 35.52 34.74L35.4 35.22C34.44 35.1 33.54 34.82 32.7 34.38ZM28.17 25.89C28.35 26.83 28.62 27.76 28.98 28.68L29.22 28.5C30.14 27.74 31.08 26.98 32.04 26.22C33 25.46 33.96 24.68 34.92 23.88C32.72 22.52 30.46 21.38 28.14 20.46C28.06 20.9 28 21.34 27.96 21.78C27.92 22.22 27.9 22.68 27.9 23.16C27.9 24.04 27.99 24.95 28.17 25.89ZM29.22 17.13C28.82 17.95 28.52 18.84 28.32 19.8C29.52 20.28 30.72 20.81 31.92 21.39C33.12 21.97 34.3 22.66 35.46 23.46L37.62 21.66L39 20.52C37.6 19.44 36.2 18.42 34.8 17.46C33.4 16.5 32.02 15.64 30.66 14.88C30.1 15.56 29.62 16.31 29.22 17.13ZM30.69 31.74C31.27 32.54 31.96 33.2 32.76 33.72C34.04 32.88 35.31 31.98 36.57 31.02C37.83 30.06 39.06 29.1 40.26 28.14L39.84 27.6C38.4 26.36 36.9 25.22 35.34 24.18C34.38 24.98 33.41 25.76 32.43 26.52C31.45 27.28 30.5 28.06 29.58 28.86L29.16 29.16C29.6 30.08 30.11 30.94 30.69 31.74ZM35.28 11.37C33.72 11.99 32.38 12.92 31.26 14.16C32.74 14.88 34.2 15.72 35.64 16.68C37.08 17.64 38.5 18.68 39.9 19.8C41.58 18.44 43.12 17.21 44.52 16.11C45.92 15.01 47.38 14.06 48.9 13.26C47.62 12.38 46.26 11.69 44.82 11.19C43.38 10.69 41.9 10.44 40.38 10.44C38.54 10.44 36.84 10.75 35.28 11.37ZM40.2 27.24L40.68 27.78L44.34 24.78L39.42 20.88C39.18 21.08 38.94 21.27 38.7 21.45C38.46 21.63 38.22 21.82 37.98 22.02C37.62 22.34 37.27 22.64 36.93 22.92C36.59 23.2 36.24 23.48 35.88 23.76C37.44 24.84 38.88 26 40.2 27.24ZM47.49 42.87C47.47 42.69 47.46 42.5 47.46 42.3C46.3 42.74 45.11 43.05 43.89 43.23C42.67 43.41 41.42 43.5 40.14 43.5C39.98 43.5 39.83 43.5 39.69 43.47C39.55 43.45 39.4 43.44 39.24 43.44C39.12 43.92 39.04 44.39 39 44.85C38.96 45.31 38.94 45.78 38.94 46.26C38.94 47.78 39.35 49.04 40.17 50.04C40.99 51.04 41.98 51.54 43.14 51.54C43.86 51.54 44.5 51.27 45.06 50.73C45.62 50.19 46.08 49.51 46.44 48.69C46.8 47.87 47.07 46.99 47.25 46.05C47.43 45.11 47.52 44.24 47.52 43.44C47.52 43.24 47.52 43.05 47.49 42.87ZM47.4 41.82C47.24 40.74 46.96 39.62 46.56 38.46C46.16 37.3 45.66 36.14 45.06 34.98C43.5 36.18 42.25 37.46 41.31 38.82C40.37 40.18 39.72 41.56 39.36 42.96C39.48 42.96 39.6 42.97 39.72 42.99C39.84 43.01 39.98 43.02 40.14 43.02C42.66 43.02 45.08 42.62 47.4 41.82ZM49.32 13.62C47.88 14.38 46.46 15.3 45.06 16.38C43.66 17.46 42.08 18.7 40.32 20.1C41.12 20.74 41.94 21.39 42.78 22.05C43.62 22.71 44.44 23.38 45.24 24.06L47.88 21.9C48.8 21.1 49.79 20.41 50.85 19.83C51.91 19.25 52.98 18.8 54.06 18.48C52.78 16.6 51.2 14.98 49.32 13.62ZM47.91 27.6C46.85 26.76 45.8 25.92 44.76 25.08L44.7 25.14C44.14 25.62 43.56 26.11 42.96 26.61C42.36 27.11 41.72 27.62 41.04 28.14C43 30.14 44.56 32.08 45.72 33.96L48.54 31.98L51.06 30.06C50.02 29.26 48.97 28.44 47.91 27.6ZM55.83 21.69C55.41 20.71 54.9 19.76 54.3 18.84C53.26 19.16 52.2 19.6 51.12 20.16C50.04 20.72 49.04 21.42 48.12 22.26L45.6 24.36C46.64 25.24 47.68 26.11 48.72 26.97C49.76 27.83 50.8 28.66 51.84 29.46C52.88 28.66 53.81 27.87 54.63 27.09C55.45 26.31 56.18 25.52 56.82 24.72C56.58 23.68 56.25 22.67 55.83 21.69ZM56.16 33.6C54.72 32.68 53.18 31.62 51.54 30.42L48.78 32.34L45.96 34.32C47.44 36.76 48.36 39.08 48.72 41.28C49.48 40.92 50.21 40.52 50.91 40.08C51.61 39.64 52.26 39.14 52.86 38.58C52.18 37.74 51.74 36.9 51.54 36.06L52.02 35.94C52.26 36.78 52.66 37.54 53.22 38.22C54.54 36.9 55.52 35.36 56.16 33.6ZM58.26 10.98C56.54 11.18 55.01 11.47 53.67 11.85C52.33 12.23 51.04 12.74 49.8 13.38C50.72 14.06 51.57 14.82 52.35 15.66C53.13 16.5 53.84 17.38 54.48 18.3C55.76 17.98 56.9 17.82 57.9 17.82C58.18 17.82 58.45 17.82 58.71 17.85C58.97 17.87 59.24 17.9 59.52 17.94C59.56 17.74 59.58 17.56 59.58 17.4V16.86C59.58 14.78 59.14 12.82 58.26 10.98ZM57 25.98C56.36 26.62 55.64 27.25 54.84 27.87C54.04 28.49 53.18 29.14 52.26 29.82C52.94 30.38 53.63 30.92 54.33 31.44C55.03 31.96 55.72 32.44 56.4 32.88C56.64 32.16 56.83 31.38 56.97 30.54C57.11 29.7 57.18 28.82 57.18 27.9C57.18 27.3 57.12 26.66 57 25.98ZM65.19 40.68C66.49 40 67.56 39.12 68.4 38.04C66.48 38 64.54 37.6 62.58 36.84C60.62 36.08 58.62 35.08 56.58 33.84C55.82 35.76 54.8 37.34 53.52 38.58C54.36 39.5 55.41 40.25 56.67 40.83C57.93 41.41 59.28 41.7 60.72 41.7C62.4 41.7 63.89 41.36 65.19 40.68ZM58.71 21.51C59.09 20.57 59.34 19.54 59.46 18.42C59.22 18.38 58.97 18.35 58.71 18.33C58.45 18.31 58.18 18.3 57.9 18.3C56.82 18.3 55.78 18.44 54.78 18.72C55.9 20.44 56.7 22.28 57.18 24.24C57.82 23.36 58.33 22.45 58.71 21.51ZM62.82 36.36C64.78 37.16 66.74 37.56 68.7 37.56H68.76C70.12 35.64 70.8 33.5 70.8 31.14C70.8 29.42 70.55 27.86 70.05 26.46C69.55 25.06 68.85 23.83 67.95 22.77C67.05 21.71 65.99 20.83 64.77 20.13C63.55 19.43 62.24 18.92 60.84 18.6C60.68 20 60.31 21.25 59.73 22.35C59.15 23.45 58.38 24.5 57.42 25.5C57.5 25.94 57.56 26.35 57.6 26.73C57.64 27.11 57.66 27.5 57.66 27.9C57.66 28.9 57.59 29.83 57.45 30.69C57.31 31.55 57.12 32.38 56.88 33.18C58.88 34.5 60.86 35.56 62.82 36.36ZM61.23 10.77C60.69 10.79 60.14 10.82 59.58 10.86C60.5 12.7 60.96 14.7 60.96 16.86V17.49C60.96 17.71 60.94 17.92 60.9 18.12C62.5 18.4 63.99 18.9 65.37 19.62C66.75 20.34 67.94 21.26 68.94 22.38C69.94 23.5 70.73 24.79 71.31 26.25C71.89 27.71 72.18 29.34 72.18 31.14C72.18 33.42 71.5 35.54 70.14 37.5C71.54 37.3 72.83 36.85 74.01 36.15C75.19 35.45 76.22 34.59 77.1 33.57C77.98 32.55 78.67 31.41 79.17 30.15C79.67 28.89 79.94 27.62 79.98 26.34C79.98 24.38 79.64 22.46 78.96 20.58C78.28 18.7 77.25 17.03 75.87 15.57C74.49 14.11 72.72 12.94 70.56 12.06C68.4 11.18 65.86 10.74 62.94 10.74C62.34 10.74 61.77 10.74 61.23 10.77Z" fill="var(--fill-0, white)" fill-opacity="0.3"/>
</g>
</svg>
